<svg xmlns="http://www.w3.org/2000/svg" xmlns:xlink="http://www.w3.org/1999/xlink" width="500" zoomAndPan="magnify" viewBox="0 0 375 374.999991" height="500" preserveAspectRatio="xMidYMid meet" version="1.0"><defs><g/></defs><g fill="#ffffff" fill-opacity="1"><g transform="translate(110.3136, 275.584112)"><g><path d="M 84.195312 -141.648438 C 62.75 -178.980469 36.273438 -179.511719 12.972656 -179.511719 L 6.355469 -179.511719 L 6.355469 0 L 64.074219 0 L 64.074219 -5.03125 C 64.074219 -68.308594 20.652344 -38.921875 13.769531 -148.53125 L 63.277344 -61.425781 C 88.167969 -17.738281 141.382812 -41.832031 141.382812 0 L 148.003906 0 L 148.003906 -179.511719 L 90.285156 -179.511719 L 90.285156 -174.480469 C 90.285156 -112.523438 131.324219 -137.941406 139.796875 -38.921875 C 136.355469 -47.128906 131.589844 -56.128906 125.5 -67.515625 C 114.378906 -88.167969 97.964844 -117.027344 84.195312 -141.648438 Z M 84.195312 -141.648438 "/></g></g></g></svg>